<!DOCTYPE svg PUBLIC "-//W3C//DTD SVG 1.1//EN" "http://www.w3.org/Graphics/SVG/1.1/DTD/svg11.dtd">
<!-- Uploaded to: SVG Repo, www.svgrepo.com, Transformed by: SVG Repo Mixer Tools -->
<svg version="1.1" id="Layer_1" xmlns="http://www.w3.org/2000/svg" xmlns:xlink="http://www.w3.org/1999/xlink" viewBox="0 0 501.33 501.33" xml:space="preserve" width="256px" height="256px" fill="#ffffff" transform="rotate(45)">
<g id="SVGRepo_bgCarrier" stroke-width="0"/>
<g id="SVGRepo_tracerCarrier" stroke-linecap="round" stroke-linejoin="round" stroke="#CCCCCC" stroke-width="100.26660000000001"> <rect x="32" style="fill:#FEC656;" width="469.333" height="501.333"/> <rect x="52.267" y="19.2" style="fill:#F6F7F8;" width="427.733" height="462.933"/> <g> <rect y="69.333" style="fill:#3A5569;" width="72.533" height="18.133"/> <rect y="118.4" style="fill:#3A5569;" width="72.533" height="18.133"/> <rect y="167.467" style="fill:#3A5569;" width="72.533" height="18.133"/> <rect y="217.6" style="fill:#3A5569;" width="72.533" height="18.133"/> <rect y="266.667" style="fill:#3A5569;" width="72.533" height="18.133"/> <rect y="315.733" style="fill:#3A5569;" width="72.533" height="18.133"/> <rect y="364.8" style="fill:#3A5569;" width="72.533" height="18.133"/> <rect y="414.933" style="fill:#3A5569;" width="72.533" height="18.133"/> </g> <rect x="142.933" y="86.4" style="fill:#F16D6E;" width="138.667" height="11.733"/> <g> <rect x="142.933" y="150.4" style="fill:#E0E0DF;" width="248.533" height="11.733"/> <rect x="142.933" y="213.333" style="fill:#E0E0DF;" width="248.533" height="11.733"/> <rect x="142.933" y="276.267" style="fill:#E0E0DF;" width="248.533" height="11.733"/> <rect x="142.933" y="339.2" style="fill:#E0E0DF;" width="248.533" height="11.733"/> <rect x="142.933" y="403.2" style="fill:#E0E0DF;" width="248.533" height="11.733"/> </g> </g>
<g id="SVGRepo_iconCarrier"> <rect x="32" style="fill:#FEC656;" width="469.333" height="501.333"/> <rect x="52.267" y="19.2" style="fill:#F6F7F8;" width="427.733" height="462.933"/> <g> <rect y="69.333" style="fill:#3A5569;" width="72.533" height="18.133"/> <rect y="118.4" style="fill:#3A5569;" width="72.533" height="18.133"/> <rect y="167.467" style="fill:#3A5569;" width="72.533" height="18.133"/> <rect y="217.6" style="fill:#3A5569;" width="72.533" height="18.133"/> <rect y="266.667" style="fill:#3A5569;" width="72.533" height="18.133"/> <rect y="315.733" style="fill:#3A5569;" width="72.533" height="18.133"/> <rect y="364.8" style="fill:#3A5569;" width="72.533" height="18.133"/> <rect y="414.933" style="fill:#3A5569;" width="72.533" height="18.133"/> </g> <rect x="142.933" y="86.4" style="fill:#F16D6E;" width="138.667" height="11.733"/> <g> <rect x="142.933" y="150.4" style="fill:#E0E0DF;" width="248.533" height="11.733"/> <rect x="142.933" y="213.333" style="fill:#E0E0DF;" width="248.533" height="11.733"/> <rect x="142.933" y="276.267" style="fill:#E0E0DF;" width="248.533" height="11.733"/> <rect x="142.933" y="339.2" style="fill:#E0E0DF;" width="248.533" height="11.733"/> <rect x="142.933" y="403.2" style="fill:#E0E0DF;" width="248.533" height="11.733"/> </g> </g>
</svg>