<?xml version="1.0" encoding="iso-8859-1"?>
<!-- Uploaded to: SVG Repo, www.svgrepo.com, Generator: SVG Repo Mixer Tools -->
<svg fill="#000000" version="1.1" id="Layer_1" xmlns="http://www.w3.org/2000/svg" xmlns:xlink="http://www.w3.org/1999/xlink" 
	 viewBox="0 0 512 512" xml:space="preserve">
<g>
	<g>
		<circle cx="83.349" cy="95.256" r="17.86"/>
	</g>
</g>
<g>
	<g>
		<circle cx="142.884" cy="95.256" r="17.86"/>
	</g>
</g>
<g>
	<g>
		<circle cx="202.419" cy="95.256" r="17.86"/>
	</g>
</g>
<g>
	<g>
		<rect x="89.302" y="208.372" width="119.07" height="35.721"/>
	</g>
</g>
<g>
	<g>
		<rect x="89.302" y="279.814" width="119.07" height="35.721"/>
	</g>
</g>
<g>
	<g>
		<rect x="256" y="208.372" width="119.07" height="35.721"/>
	</g>
</g>
<g>
	<g>
		<path d="M464.372,282.887V23.814H0v142.884V392.93h287.182c8.59,53.916,55.406,95.256,111.702,95.256
			C461.256,488.186,512,437.442,512,375.07C512,337.084,493.177,303.411,464.372,282.887z M35.721,59.535h392.93v71.442H35.721
			V59.535z M302.744,315.535c-7.761,12.487-13.158,26.587-15.561,41.674H35.721V166.698h392.93v99.239
			c-9.489-2.591-19.468-3.983-29.767-3.983c-22.426,0-43.346,6.56-60.948,17.86H256v35.721H302.744z M398.884,452.465
			c-42.676,0-77.395-34.72-77.395-77.395s34.72-77.395,77.395-77.395s77.395,34.72,77.395,77.395S441.56,452.465,398.884,452.465z"
			/>
	</g>
</g>
<g>
	<g>
		<polygon points="428.651,357.209 416.744,357.209 416.744,333.395 381.023,333.395 381.023,357.209 357.209,357.209 
			357.209,392.93 381.023,392.93 381.023,416.744 416.744,416.744 416.744,392.93 440.558,392.93 440.558,357.209 		"/>
	</g>
</g>
</svg>